<mxfile host="Electron" agent="Mozilla/5.0 (Windows NT 10.0; Win64; x64) AppleWebKit/537.36 (KHTML, like Gecko) draw.io/28.1.2 Chrome/138.0.7204.243 Electron/37.4.0 Safari/537.36" version="28.1.2">
  <diagram name="Page-1" id="mrFjn-QlgoROQsan1mcn">
    <mxGraphModel dx="772" dy="501" grid="1" gridSize="3" guides="1" tooltips="1" connect="1" arrows="1" fold="1" page="1" pageScale="1" pageWidth="850" pageHeight="1100" background="none" math="0" shadow="0">
      <root>
        <mxCell id="0" />
        <mxCell id="1" parent="0" />
        <mxCell id="HZEfyROWU3HS3ut-1qPM-17" value="" style="edgeStyle=orthogonalEdgeStyle;rounded=0;orthogonalLoop=1;jettySize=auto;html=1;" parent="1" source="HZEfyROWU3HS3ut-1qPM-1" target="HZEfyROWU3HS3ut-1qPM-16" edge="1">
          <mxGeometry relative="1" as="geometry" />
        </mxCell>
        <mxCell id="HZEfyROWU3HS3ut-1qPM-1" value="mulai&amp;nbsp;" style="ellipse;whiteSpace=wrap;html=1;" parent="1" vertex="1">
          <mxGeometry x="301" y="12" width="70" height="40" as="geometry" />
        </mxCell>
        <mxCell id="HZEfyROWU3HS3ut-1qPM-5" value="" style="edgeStyle=orthogonalEdgeStyle;rounded=0;orthogonalLoop=1;jettySize=auto;html=1;" parent="1" source="HZEfyROWU3HS3ut-1qPM-2" target="HZEfyROWU3HS3ut-1qPM-4" edge="1">
          <mxGeometry relative="1" as="geometry" />
        </mxCell>
        <mxCell id="HZEfyROWU3HS3ut-1qPM-9" value="" style="edgeStyle=orthogonalEdgeStyle;rounded=0;orthogonalLoop=1;jettySize=auto;html=1;" parent="1" source="HZEfyROWU3HS3ut-1qPM-2" target="HZEfyROWU3HS3ut-1qPM-8" edge="1">
          <mxGeometry relative="1" as="geometry">
            <Array as="points">
              <mxPoint x="336" y="279" />
              <mxPoint x="336" y="279" />
            </Array>
          </mxGeometry>
        </mxCell>
        <mxCell id="HZEfyROWU3HS3ut-1qPM-2" value="pilihan ==1" style="rhombus;whiteSpace=wrap;html=1;" parent="1" vertex="1">
          <mxGeometry x="296" y="180" width="80" height="80" as="geometry" />
        </mxCell>
        <mxCell id="HZEfyROWU3HS3ut-1qPM-33" value="" style="edgeStyle=orthogonalEdgeStyle;rounded=0;orthogonalLoop=1;jettySize=auto;html=1;" parent="1" source="HZEfyROWU3HS3ut-1qPM-4" target="HZEfyROWU3HS3ut-1qPM-10" edge="1">
          <mxGeometry relative="1" as="geometry" />
        </mxCell>
        <mxCell id="HZEfyROWU3HS3ut-1qPM-4" value="pilihan ==2" style="rhombus;whiteSpace=wrap;html=1;" parent="1" vertex="1">
          <mxGeometry x="437" y="180" width="80" height="80" as="geometry" />
        </mxCell>
        <mxCell id="HZEfyROWU3HS3ut-1qPM-13" value="" style="edgeStyle=orthogonalEdgeStyle;rounded=0;orthogonalLoop=1;jettySize=auto;html=1;" parent="1" source="HZEfyROWU3HS3ut-1qPM-8" target="HZEfyROWU3HS3ut-1qPM-12" edge="1">
          <mxGeometry relative="1" as="geometry" />
        </mxCell>
        <mxCell id="HZEfyROWU3HS3ut-1qPM-8" value="input&lt;div&gt;&amp;nbsp;username dan&amp;nbsp;&lt;/div&gt;&lt;div&gt;password&lt;/div&gt;" style="shape=parallelogram;perimeter=parallelogramPerimeter;whiteSpace=wrap;html=1;fixedSize=1;" parent="1" vertex="1">
          <mxGeometry x="276" y="315" width="120" height="60" as="geometry" />
        </mxCell>
        <mxCell id="HZEfyROWU3HS3ut-1qPM-36" value="" style="edgeStyle=orthogonalEdgeStyle;rounded=0;orthogonalLoop=1;jettySize=auto;html=1;" parent="1" source="HZEfyROWU3HS3ut-1qPM-10" target="HZEfyROWU3HS3ut-1qPM-35" edge="1">
          <mxGeometry relative="1" as="geometry" />
        </mxCell>
        <mxCell id="HZEfyROWU3HS3ut-1qPM-10" value="input&amp;nbsp;&lt;div&gt;username,&amp;nbsp; password, role,baru&amp;nbsp;&lt;/div&gt;" style="shape=parallelogram;perimeter=parallelogramPerimeter;whiteSpace=wrap;html=1;fixedSize=1;" parent="1" vertex="1">
          <mxGeometry x="549" y="190" width="120" height="60" as="geometry" />
        </mxCell>
        <mxCell id="vXYuaJmi_NVSzy3bkCtr-4" style="edgeStyle=orthogonalEdgeStyle;rounded=0;orthogonalLoop=1;jettySize=auto;html=1;entryX=0;entryY=0.25;entryDx=0;entryDy=0;" edge="1" parent="1" source="HZEfyROWU3HS3ut-1qPM-12" target="HZEfyROWU3HS3ut-1qPM-16">
          <mxGeometry relative="1" as="geometry">
            <Array as="points">
              <mxPoint x="240" y="433" />
              <mxPoint x="240" y="94" />
            </Array>
          </mxGeometry>
        </mxCell>
        <mxCell id="vXYuaJmi_NVSzy3bkCtr-7" value="" style="edgeStyle=orthogonalEdgeStyle;rounded=0;orthogonalLoop=1;jettySize=auto;html=1;" edge="1" parent="1" source="HZEfyROWU3HS3ut-1qPM-12" target="vXYuaJmi_NVSzy3bkCtr-6">
          <mxGeometry relative="1" as="geometry" />
        </mxCell>
        <mxCell id="HZEfyROWU3HS3ut-1qPM-12" value="logiin berhasil" style="rhombus;whiteSpace=wrap;html=1;" parent="1" vertex="1">
          <mxGeometry x="296" y="393" width="80" height="80" as="geometry" />
        </mxCell>
        <mxCell id="vXYuaJmi_NVSzy3bkCtr-5" value="" style="edgeStyle=orthogonalEdgeStyle;rounded=0;orthogonalLoop=1;jettySize=auto;html=1;" edge="1" parent="1" source="HZEfyROWU3HS3ut-1qPM-16" target="HZEfyROWU3HS3ut-1qPM-2">
          <mxGeometry relative="1" as="geometry" />
        </mxCell>
        <mxCell id="HZEfyROWU3HS3ut-1qPM-16" value="output&lt;div&gt;1.login&lt;/div&gt;&lt;div&gt;2.register&lt;/div&gt;" style="shape=parallelogram;perimeter=parallelogramPerimeter;whiteSpace=wrap;html=1;fixedSize=1;" parent="1" vertex="1">
          <mxGeometry x="276" y="75" width="120" height="60" as="geometry" />
        </mxCell>
        <mxCell id="HZEfyROWU3HS3ut-1qPM-22" value="" style="edgeStyle=orthogonalEdgeStyle;rounded=0;orthogonalLoop=1;jettySize=auto;html=1;" parent="1" source="HZEfyROWU3HS3ut-1qPM-19" target="HZEfyROWU3HS3ut-1qPM-21" edge="1">
          <mxGeometry relative="1" as="geometry" />
        </mxCell>
        <mxCell id="HZEfyROWU3HS3ut-1qPM-19" value="output&lt;div&gt;1.create&lt;/div&gt;&lt;div&gt;2.read&lt;/div&gt;&lt;div&gt;3.update&lt;/div&gt;&lt;div&gt;4.delete&lt;/div&gt;&lt;div&gt;5.logout&lt;/div&gt;" style="shape=parallelogram;perimeter=parallelogramPerimeter;whiteSpace=wrap;html=1;fixedSize=1;" parent="1" vertex="1">
          <mxGeometry x="277" y="603" width="120" height="107" as="geometry" />
        </mxCell>
        <mxCell id="HZEfyROWU3HS3ut-1qPM-24" value="" style="edgeStyle=orthogonalEdgeStyle;rounded=0;orthogonalLoop=1;jettySize=auto;html=1;" parent="1" source="HZEfyROWU3HS3ut-1qPM-21" target="HZEfyROWU3HS3ut-1qPM-23" edge="1">
          <mxGeometry relative="1" as="geometry" />
        </mxCell>
        <mxCell id="HZEfyROWU3HS3ut-1qPM-32" value="" style="edgeStyle=orthogonalEdgeStyle;rounded=0;orthogonalLoop=1;jettySize=auto;html=1;" parent="1" source="HZEfyROWU3HS3ut-1qPM-21" target="HZEfyROWU3HS3ut-1qPM-31" edge="1">
          <mxGeometry relative="1" as="geometry" />
        </mxCell>
        <mxCell id="HZEfyROWU3HS3ut-1qPM-21" value="pilihan ==1" style="rhombus;whiteSpace=wrap;html=1;" parent="1" vertex="1">
          <mxGeometry x="297" y="810" width="80" height="80" as="geometry" />
        </mxCell>
        <mxCell id="HZEfyROWU3HS3ut-1qPM-26" value="" style="edgeStyle=orthogonalEdgeStyle;rounded=0;orthogonalLoop=1;jettySize=auto;html=1;" parent="1" source="HZEfyROWU3HS3ut-1qPM-23" target="HZEfyROWU3HS3ut-1qPM-25" edge="1">
          <mxGeometry relative="1" as="geometry" />
        </mxCell>
        <mxCell id="HZEfyROWU3HS3ut-1qPM-47" value="" style="edgeStyle=orthogonalEdgeStyle;rounded=0;orthogonalLoop=1;jettySize=auto;html=1;" parent="1" source="HZEfyROWU3HS3ut-1qPM-23" target="HZEfyROWU3HS3ut-1qPM-46" edge="1">
          <mxGeometry relative="1" as="geometry" />
        </mxCell>
        <mxCell id="HZEfyROWU3HS3ut-1qPM-23" value="pilihan ==2" style="rhombus;whiteSpace=wrap;html=1;" parent="1" vertex="1">
          <mxGeometry x="417" y="810" width="80" height="80" as="geometry" />
        </mxCell>
        <mxCell id="HZEfyROWU3HS3ut-1qPM-28" value="" style="edgeStyle=orthogonalEdgeStyle;rounded=0;orthogonalLoop=1;jettySize=auto;html=1;" parent="1" source="HZEfyROWU3HS3ut-1qPM-25" target="HZEfyROWU3HS3ut-1qPM-27" edge="1">
          <mxGeometry relative="1" as="geometry" />
        </mxCell>
        <mxCell id="HZEfyROWU3HS3ut-1qPM-49" value="" style="edgeStyle=orthogonalEdgeStyle;rounded=0;orthogonalLoop=1;jettySize=auto;html=1;" parent="1" source="HZEfyROWU3HS3ut-1qPM-25" target="HZEfyROWU3HS3ut-1qPM-48" edge="1">
          <mxGeometry relative="1" as="geometry" />
        </mxCell>
        <mxCell id="HZEfyROWU3HS3ut-1qPM-25" value="pilihan ==3" style="rhombus;whiteSpace=wrap;html=1;" parent="1" vertex="1">
          <mxGeometry x="540" y="810" width="80" height="80" as="geometry" />
        </mxCell>
        <mxCell id="HZEfyROWU3HS3ut-1qPM-30" value="" style="edgeStyle=orthogonalEdgeStyle;rounded=0;orthogonalLoop=1;jettySize=auto;html=1;" parent="1" source="HZEfyROWU3HS3ut-1qPM-27" target="HZEfyROWU3HS3ut-1qPM-29" edge="1">
          <mxGeometry relative="1" as="geometry" />
        </mxCell>
        <mxCell id="HZEfyROWU3HS3ut-1qPM-53" value="" style="edgeStyle=orthogonalEdgeStyle;rounded=0;orthogonalLoop=1;jettySize=auto;html=1;" parent="1" source="HZEfyROWU3HS3ut-1qPM-27" target="HZEfyROWU3HS3ut-1qPM-52" edge="1">
          <mxGeometry relative="1" as="geometry" />
        </mxCell>
        <mxCell id="HZEfyROWU3HS3ut-1qPM-27" value="pilihan ==4" style="rhombus;whiteSpace=wrap;html=1;" parent="1" vertex="1">
          <mxGeometry x="660" y="810" width="80" height="80" as="geometry" />
        </mxCell>
        <mxCell id="HZEfyROWU3HS3ut-1qPM-65" value="" style="edgeStyle=orthogonalEdgeStyle;rounded=0;orthogonalLoop=1;jettySize=auto;html=1;" parent="1" source="HZEfyROWU3HS3ut-1qPM-29" target="HZEfyROWU3HS3ut-1qPM-64" edge="1">
          <mxGeometry relative="1" as="geometry" />
        </mxCell>
        <mxCell id="HZEfyROWU3HS3ut-1qPM-29" value="pilihan ==5" style="rhombus;whiteSpace=wrap;html=1;" parent="1" vertex="1">
          <mxGeometry x="777" y="810" width="80" height="80" as="geometry" />
        </mxCell>
        <mxCell id="vXYuaJmi_NVSzy3bkCtr-13" value="" style="edgeStyle=orthogonalEdgeStyle;rounded=0;orthogonalLoop=1;jettySize=auto;html=1;" edge="1" parent="1" source="HZEfyROWU3HS3ut-1qPM-31" target="HZEfyROWU3HS3ut-1qPM-38">
          <mxGeometry relative="1" as="geometry" />
        </mxCell>
        <mxCell id="HZEfyROWU3HS3ut-1qPM-31" value="input&amp;nbsp;&lt;div&gt;nama, umur,&lt;/div&gt;&lt;div&gt;ttl, tim , jk&lt;/div&gt;" style="shape=parallelogram;perimeter=parallelogramPerimeter;whiteSpace=wrap;html=1;fixedSize=1;" parent="1" vertex="1">
          <mxGeometry x="277" y="921" width="120" height="60" as="geometry" />
        </mxCell>
        <mxCell id="HZEfyROWU3HS3ut-1qPM-37" style="edgeStyle=orthogonalEdgeStyle;rounded=0;orthogonalLoop=1;jettySize=auto;html=1;entryX=1;entryY=0.5;entryDx=0;entryDy=0;" parent="1" source="HZEfyROWU3HS3ut-1qPM-35" target="HZEfyROWU3HS3ut-1qPM-16" edge="1">
          <mxGeometry relative="1" as="geometry">
            <mxPoint x="696" y="51" as="targetPoint" />
            <Array as="points">
              <mxPoint x="726" y="105" />
            </Array>
          </mxGeometry>
        </mxCell>
        <mxCell id="HZEfyROWU3HS3ut-1qPM-35" value="output&amp;nbsp;&lt;div&gt;register berhasil&lt;/div&gt;" style="shape=parallelogram;perimeter=parallelogramPerimeter;whiteSpace=wrap;html=1;fixedSize=1;" parent="1" vertex="1">
          <mxGeometry x="702" y="190" width="120" height="60" as="geometry" />
        </mxCell>
        <mxCell id="vXYuaJmi_NVSzy3bkCtr-16" style="edgeStyle=orthogonalEdgeStyle;rounded=0;orthogonalLoop=1;jettySize=auto;html=1;entryX=0;entryY=0.25;entryDx=0;entryDy=0;" edge="1" parent="1" source="HZEfyROWU3HS3ut-1qPM-38" target="HZEfyROWU3HS3ut-1qPM-19">
          <mxGeometry relative="1" as="geometry">
            <Array as="points">
              <mxPoint x="337" y="1095" />
              <mxPoint x="213" y="1095" />
              <mxPoint x="213" y="636" />
            </Array>
          </mxGeometry>
        </mxCell>
        <mxCell id="HZEfyROWU3HS3ut-1qPM-38" value="output&lt;div&gt;pemain berhasil&lt;/div&gt;&lt;div&gt;&amp;nbsp;di&amp;nbsp;&lt;/div&gt;&lt;div&gt;tambahkan&lt;/div&gt;" style="shape=parallelogram;perimeter=parallelogramPerimeter;whiteSpace=wrap;html=1;fixedSize=1;" parent="1" vertex="1">
          <mxGeometry x="277" y="1008" width="120" height="60" as="geometry" />
        </mxCell>
        <mxCell id="HZEfyROWU3HS3ut-1qPM-44" value="" style="edgeStyle=orthogonalEdgeStyle;rounded=0;orthogonalLoop=1;jettySize=auto;html=1;" parent="1" source="HZEfyROWU3HS3ut-1qPM-41" target="HZEfyROWU3HS3ut-1qPM-43" edge="1">
          <mxGeometry relative="1" as="geometry" />
        </mxCell>
        <mxCell id="HZEfyROWU3HS3ut-1qPM-41" value="output&amp;nbsp;&lt;div&gt;1.liat pemain&amp;nbsp;&lt;/div&gt;&lt;div&gt;2. keluar&lt;/div&gt;" style="shape=parallelogram;perimeter=parallelogramPerimeter;whiteSpace=wrap;html=1;fixedSize=1;" parent="1" vertex="1">
          <mxGeometry x="420" y="512" width="120" height="60" as="geometry" />
        </mxCell>
        <mxCell id="HZEfyROWU3HS3ut-1qPM-59" value="" style="edgeStyle=orthogonalEdgeStyle;rounded=0;orthogonalLoop=1;jettySize=auto;html=1;" parent="1" source="HZEfyROWU3HS3ut-1qPM-43" target="HZEfyROWU3HS3ut-1qPM-57" edge="1">
          <mxGeometry relative="1" as="geometry" />
        </mxCell>
        <mxCell id="HZEfyROWU3HS3ut-1qPM-63" value="" style="edgeStyle=orthogonalEdgeStyle;rounded=0;orthogonalLoop=1;jettySize=auto;html=1;" parent="1" source="HZEfyROWU3HS3ut-1qPM-43" target="HZEfyROWU3HS3ut-1qPM-62" edge="1">
          <mxGeometry relative="1" as="geometry" />
        </mxCell>
        <mxCell id="HZEfyROWU3HS3ut-1qPM-43" value="pilihan ==1" style="rhombus;whiteSpace=wrap;html=1;" parent="1" vertex="1">
          <mxGeometry x="440" y="594" width="80" height="80" as="geometry" />
        </mxCell>
        <mxCell id="vXYuaJmi_NVSzy3bkCtr-17" style="edgeStyle=orthogonalEdgeStyle;rounded=0;orthogonalLoop=1;jettySize=auto;html=1;entryX=0;entryY=0.25;entryDx=0;entryDy=0;" edge="1" parent="1" source="HZEfyROWU3HS3ut-1qPM-46" target="HZEfyROWU3HS3ut-1qPM-19">
          <mxGeometry relative="1" as="geometry">
            <Array as="points">
              <mxPoint x="457" y="1095" />
              <mxPoint x="213" y="1095" />
              <mxPoint x="213" y="636" />
            </Array>
          </mxGeometry>
        </mxCell>
        <mxCell id="HZEfyROWU3HS3ut-1qPM-46" value="output nama,umur,&lt;div&gt;ttl,yim,jk&lt;/div&gt;" style="shape=parallelogram;perimeter=parallelogramPerimeter;whiteSpace=wrap;html=1;fixedSize=1;" parent="1" vertex="1">
          <mxGeometry x="397" y="921" width="120" height="60" as="geometry" />
        </mxCell>
        <mxCell id="vXYuaJmi_NVSzy3bkCtr-15" value="" style="edgeStyle=orthogonalEdgeStyle;rounded=0;orthogonalLoop=1;jettySize=auto;html=1;" edge="1" parent="1" source="HZEfyROWU3HS3ut-1qPM-48" target="HZEfyROWU3HS3ut-1qPM-50">
          <mxGeometry relative="1" as="geometry" />
        </mxCell>
        <mxCell id="HZEfyROWU3HS3ut-1qPM-48" value="input nomor pemain yg ingin di rubah" style="shape=parallelogram;perimeter=parallelogramPerimeter;whiteSpace=wrap;html=1;fixedSize=1;" parent="1" vertex="1">
          <mxGeometry x="520" y="921" width="120" height="60" as="geometry" />
        </mxCell>
        <mxCell id="vXYuaJmi_NVSzy3bkCtr-18" style="edgeStyle=orthogonalEdgeStyle;rounded=0;orthogonalLoop=1;jettySize=auto;html=1;entryX=0;entryY=0.25;entryDx=0;entryDy=0;" edge="1" parent="1" source="HZEfyROWU3HS3ut-1qPM-50" target="HZEfyROWU3HS3ut-1qPM-19">
          <mxGeometry relative="1" as="geometry">
            <Array as="points">
              <mxPoint x="580" y="1095" />
              <mxPoint x="213" y="1095" />
              <mxPoint x="213" y="636" />
            </Array>
          </mxGeometry>
        </mxCell>
        <mxCell id="HZEfyROWU3HS3ut-1qPM-50" value="input&amp;nbsp;&lt;div&gt;nama, umur,&lt;/div&gt;&lt;div&gt;ttl, tim , jk baru&lt;/div&gt;" style="shape=parallelogram;perimeter=parallelogramPerimeter;whiteSpace=wrap;html=1;fixedSize=1;" parent="1" vertex="1">
          <mxGeometry x="520" y="1005" width="120" height="60" as="geometry" />
        </mxCell>
        <mxCell id="HZEfyROWU3HS3ut-1qPM-55" value="" style="edgeStyle=orthogonalEdgeStyle;rounded=0;orthogonalLoop=1;jettySize=auto;html=1;" parent="1" source="HZEfyROWU3HS3ut-1qPM-52" target="HZEfyROWU3HS3ut-1qPM-54" edge="1">
          <mxGeometry relative="1" as="geometry" />
        </mxCell>
        <mxCell id="HZEfyROWU3HS3ut-1qPM-52" value="input nomor pemain yg ingin di hapus" style="shape=parallelogram;perimeter=parallelogramPerimeter;whiteSpace=wrap;html=1;fixedSize=1;" parent="1" vertex="1">
          <mxGeometry x="640" y="921" width="120" height="60" as="geometry" />
        </mxCell>
        <mxCell id="HZEfyROWU3HS3ut-1qPM-54" value="output pemain beerhasil di hapus" style="shape=parallelogram;perimeter=parallelogramPerimeter;whiteSpace=wrap;html=1;fixedSize=1;" parent="1" vertex="1">
          <mxGeometry x="640" y="1008" width="120" height="60" as="geometry" />
        </mxCell>
        <mxCell id="HZEfyROWU3HS3ut-1qPM-57" value="output nama,umur,&lt;div&gt;ttl,tim,jk&lt;/div&gt;" style="shape=parallelogram;perimeter=parallelogramPerimeter;whiteSpace=wrap;html=1;fixedSize=1;" parent="1" vertex="1">
          <mxGeometry x="420" y="711" width="120" height="57" as="geometry" />
        </mxCell>
        <mxCell id="HZEfyROWU3HS3ut-1qPM-67" value="" style="edgeStyle=orthogonalEdgeStyle;rounded=0;orthogonalLoop=1;jettySize=auto;html=1;" parent="1" source="HZEfyROWU3HS3ut-1qPM-62" target="HZEfyROWU3HS3ut-1qPM-66" edge="1">
          <mxGeometry relative="1" as="geometry" />
        </mxCell>
        <mxCell id="HZEfyROWU3HS3ut-1qPM-62" value="pilihan ==2" style="rhombus;whiteSpace=wrap;html=1;" parent="1" vertex="1">
          <mxGeometry x="589" y="594" width="80" height="80" as="geometry" />
        </mxCell>
        <mxCell id="HZEfyROWU3HS3ut-1qPM-77" style="edgeStyle=orthogonalEdgeStyle;rounded=0;orthogonalLoop=1;jettySize=auto;html=1;entryX=0.5;entryY=0;entryDx=0;entryDy=0;" parent="1" source="HZEfyROWU3HS3ut-1qPM-64" target="HZEfyROWU3HS3ut-1qPM-68" edge="1">
          <mxGeometry relative="1" as="geometry">
            <Array as="points">
              <mxPoint x="817" y="1119" />
              <mxPoint x="333" y="1119" />
              <mxPoint x="333" y="1197" />
            </Array>
          </mxGeometry>
        </mxCell>
        <mxCell id="HZEfyROWU3HS3ut-1qPM-64" value="output terima kasih&amp;nbsp;" style="shape=parallelogram;perimeter=parallelogramPerimeter;whiteSpace=wrap;html=1;fixedSize=1;" parent="1" vertex="1">
          <mxGeometry x="757" y="924" width="120" height="60" as="geometry" />
        </mxCell>
        <mxCell id="HZEfyROWU3HS3ut-1qPM-76" style="edgeStyle=orthogonalEdgeStyle;rounded=0;orthogonalLoop=1;jettySize=auto;html=1;entryX=0.5;entryY=0;entryDx=0;entryDy=0;" parent="1" source="HZEfyROWU3HS3ut-1qPM-66" target="HZEfyROWU3HS3ut-1qPM-68" edge="1">
          <mxGeometry relative="1" as="geometry">
            <Array as="points">
              <mxPoint x="882" y="747" />
              <mxPoint x="882" y="1119" />
              <mxPoint x="333" y="1119" />
              <mxPoint x="333" y="1197" />
            </Array>
          </mxGeometry>
        </mxCell>
        <mxCell id="HZEfyROWU3HS3ut-1qPM-66" value="output terima kasih&amp;nbsp;" style="shape=parallelogram;perimeter=parallelogramPerimeter;whiteSpace=wrap;html=1;fixedSize=1;" parent="1" vertex="1">
          <mxGeometry x="569" y="708" width="120" height="60" as="geometry" />
        </mxCell>
        <mxCell id="HZEfyROWU3HS3ut-1qPM-68" value="selesai" style="ellipse;whiteSpace=wrap;html=1;" parent="1" vertex="1">
          <mxGeometry x="297" y="1212" width="71" height="42" as="geometry" />
        </mxCell>
        <mxCell id="vXYuaJmi_NVSzy3bkCtr-10" value="" style="edgeStyle=orthogonalEdgeStyle;rounded=0;orthogonalLoop=1;jettySize=auto;html=1;" edge="1" parent="1" source="vXYuaJmi_NVSzy3bkCtr-6" target="HZEfyROWU3HS3ut-1qPM-19">
          <mxGeometry relative="1" as="geometry" />
        </mxCell>
        <mxCell id="vXYuaJmi_NVSzy3bkCtr-12" value="" style="edgeStyle=orthogonalEdgeStyle;rounded=0;orthogonalLoop=1;jettySize=auto;html=1;" edge="1" parent="1" source="vXYuaJmi_NVSzy3bkCtr-6" target="HZEfyROWU3HS3ut-1qPM-41">
          <mxGeometry relative="1" as="geometry" />
        </mxCell>
        <mxCell id="vXYuaJmi_NVSzy3bkCtr-6" value="login sebagai admin" style="rhombus;whiteSpace=wrap;html=1;" vertex="1" parent="1">
          <mxGeometry x="296" y="502" width="80" height="80" as="geometry" />
        </mxCell>
        <mxCell id="vXYuaJmi_NVSzy3bkCtr-20" style="edgeStyle=orthogonalEdgeStyle;rounded=0;orthogonalLoop=1;jettySize=auto;html=1;entryX=0;entryY=0.25;entryDx=0;entryDy=0;" edge="1" parent="1" source="HZEfyROWU3HS3ut-1qPM-54" target="HZEfyROWU3HS3ut-1qPM-19">
          <mxGeometry relative="1" as="geometry">
            <Array as="points">
              <mxPoint x="700" y="1095" />
              <mxPoint x="213" y="1095" />
              <mxPoint x="213" y="636" />
            </Array>
          </mxGeometry>
        </mxCell>
      </root>
    </mxGraphModel>
  </diagram>
</mxfile>
